<?xml version="1.0" encoding="iso-8859-1"?>
<!-- Uploaded to: SVG Repo, www.svgrepo.com, Generator: SVG Repo Mixer Tools -->
<svg fill="#000000" height="800px" width="800px" version="1.1" id="Layer_1" xmlns="http://www.w3.org/2000/svg" xmlns:xlink="http://www.w3.org/1999/xlink" 
	 viewBox="0 0 512 512" xml:space="preserve">
<g>
	<g>
		<path d="M411.927,164.095c-37.236-17.455-77.964-17.455-114.036,0c-5.818,2.327-8.145,9.309-5.818,15.127
			s9.309,8.145,15.127,5.818c30.255-13.964,64-13.964,95.418,0c1.164,1.164,3.491,1.164,4.655,1.164
			c4.655,0,8.145-2.327,10.473-6.982C420.073,173.404,417.745,166.422,411.927,164.095z"/>
	</g>
</g>
<g>
	<g>
		<path d="M411.927,222.276c-37.236-17.455-77.964-17.455-114.036,0c-5.818,2.327-8.145,9.309-5.818,15.127
			s9.309,8.145,15.127,5.818c30.255-13.964,64-13.964,95.418,0c1.164,1.164,3.491,1.164,4.655,1.164
			c4.655,0,8.145-2.327,10.473-6.982C420.073,231.585,417.745,224.604,411.927,222.276z"/>
	</g>
</g>
<g>
	<g>
		<path d="M411.927,280.458c-37.236-17.455-77.964-17.455-114.036,0c-5.818,2.327-8.145,9.309-5.818,15.127
			s9.309,8.145,15.127,5.818c30.255-13.964,64-13.964,95.418,0c1.164,1.164,3.491,1.164,4.655,1.164
			c4.655,0,8.145-2.327,10.473-6.982C420.073,289.767,417.745,282.785,411.927,280.458z"/>
	</g>
</g>
<g>
	<g>
		<path d="M214.109,164.095c-37.236-17.455-77.964-17.455-114.036,0c-5.818,2.327-8.146,9.309-5.818,15.127
			s9.309,8.145,15.127,5.818c30.255-13.964,64-13.964,95.418,0c1.164,1.164,3.491,1.164,4.655,1.164
			c4.655,0,8.146-2.327,10.473-6.982C222.255,173.404,219.927,166.422,214.109,164.095z"/>
	</g>
</g>
<g>
	<g>
		<path d="M214.109,222.276c-37.236-17.455-77.964-17.455-114.036,0c-5.818,2.327-8.146,9.309-5.818,15.127
			s9.309,8.145,15.127,5.818c30.255-13.964,64-13.964,95.418,0c1.164,1.164,3.491,1.164,4.655,1.164
			c4.655,0,8.146-2.327,10.473-6.982C222.255,231.585,219.927,224.604,214.109,222.276z"/>
	</g>
</g>
<g>
	<g>
		<path d="M214.109,280.458c-37.236-17.455-77.964-17.455-114.036,0c-5.818,2.327-8.146,9.309-5.818,15.127
			s9.309,8.145,15.127,5.818c30.255-13.964,64-13.964,95.418,0c1.164,1.164,3.491,1.164,4.655,1.164
			c4.655,0,8.146-2.327,10.473-6.982C222.255,289.767,219.927,282.785,214.109,280.458z"/>
	</g>
</g>
<g>
	<g>
		<path d="M500.364,93.113c-6.982,0-11.636,4.655-11.636,11.636v314.182c0,6.982-4.655,11.636-11.636,11.636H267.636V109.404
			c53.527-36.073,121.018-36.073,174.545,0v274.618c-44.218-25.6-95.418-30.255-143.127-13.964
			c-5.818,2.327-9.309,8.145-6.982,15.127c2.327,5.818,8.145,9.309,15.127,6.982c47.709-16.291,98.909-8.146,140.8,23.273
			c3.491,2.327,8.145,3.491,11.636,1.164s5.818-5.818,5.818-10.473V103.585c0-3.491-2.327-6.982-4.655-9.309
			c-64-47.709-147.782-47.709-211.782,0c-2.327,1.164-4.655,4.655-4.655,9.309v280.436c-54.691-31.418-119.855-31.418-174.545,0
			V109.404c40.727-27.927,90.764-34.909,136.145-19.782c5.818,2.327,12.8-1.164,15.127-6.982c2.327-5.818-2.327-12.8-8.146-15.127
			C158.255,48.895,98.909,58.204,51.2,94.276c-2.327,1.164-4.655,4.655-4.655,9.309v302.545c0,4.655,2.327,8.145,5.818,10.473
			s8.145,1.164,11.636-1.164c54.691-39.564,124.509-40.727,179.2-3.491v18.618H34.909c-6.982,0-11.636-4.655-11.636-11.636V104.749
			c0-6.982-4.655-11.636-11.636-11.636S0,97.767,0,104.749v314.182c0,19.782,15.127,34.909,34.909,34.909h442.182
			c19.782,0,34.909-15.127,34.909-34.909V104.749C512,97.767,507.345,93.113,500.364,93.113z"/>
	</g>
</g>
</svg>