<svg version="1.1" viewBox="0 0 237.33333 173.33333" xmlns:inkscape="http://www.inkscape.org/namespaces/inkscape" xmlns:sodipodi="http://sodipodi.sourceforge.net/DTD/sodipodi-0.dtd" xmlns="http://www.w3.org/2000/svg" xmlns:svg="http://www.w3.org/2000/svg">
<path d="m 164.19069,122.40014 c -7.3926,-2.39978 -11.75559,-6.56964 -11.398,-10.89347 0.17947,-2.17007 0.42988,-2.50667 1.86484,-2.50667 1.13289,0 1.7337,0.42203 1.89816,1.33333 0.37941,2.1024 3.2987,4.76955 7.02268,6.41615 4.57518,2.02296 13.58911,2.20236 17.08829,0.3401 3.90843,-2.08006 5.98691,-4.50602 7.07889,-8.2623 2.0669,-7.10986 -0.47556,-13.180696 -6.87385,-16.413245 -1.69265,-0.855161 -8.92112,-2.332212 -11.74932,-2.400832 -0.29935,-0.0073 -0.44935,-0.838206 -0.33333,-1.846539 0.19837,-1.724041 0.46766,-1.864961 4.5172,-2.363884 8.7814,-1.08191 12.68634,-4.364696 12.69125,-10.669222 0.003,-4.081048 -1.31418,-6.600091 -4.48134,-8.569198 -4.88461,-3.036882 -15.42109,-1.695336 -18.81642,2.395779 -0.48274,0.581675 -1.06267,2.778601 -1.28873,4.882058 -0.38588,3.590609 -0.52672,3.837714 -2.3033,4.041105 -2.87729,0.329404 -4.44154,-1.486736 -4.43855,-5.153296 0.004,-4.920924 3.37229,-9.056652 9.33084,-11.456793 3.46075,-1.394013 18.20133,-1.228978 21.41951,0.239812 5.99318,2.735309 9.20684,7.497132 9.23251,13.680198 0.0241,5.807023 -3.02932,10.318221 -8.26554,12.211661 l -2.15044,0.777611 4.02528,2.08376 c 5.44603,2.819236 7.93355,6.721417 8.28844,13.002125 0.1376,2.43513 -0.0987,5.72313 -0.52509,7.30666 -1.02266,3.79787 -5.01249,8.03669 -9.83102,10.44453 -3.48617,1.74205 -4.60339,1.94663 -11.52699,2.11077 -5.13254,0.12167 -8.59524,-0.11968 -10.47597,-0.7302 z M 40.001005,121.26496 C 34.169963,120.12688 31.147514,116.57294 31.068562,110.76175 31.005841,106.14533 32.379247,104 35.397313,104 c 2.482841,0 2.932741,0.89955 2.954139,5.90664 0.01623,3.79809 0.211171,4.40603 1.870509,5.83333 3.328087,2.8627 6.073345,1.78865 7.683635,-3.00612 1.046254,-3.11531 1.056059,-42.248748 0.01109,-44.27768 -2.390433,-4.641328 -6.257489,-5.813429 -9.442214,-2.861926 -1.995357,1.849234 -2.768423,5.112064 -2.319113,9.788123 0.292164,3.040604 0.19114,3.339251 -1.252113,3.701484 -4.526802,1.136155 -6.53673,-1.925479 -5.51349,-8.398456 0.641994,-4.061226 2.536761,-7.152459 5.721805,-9.334887 2.716062,-1.861075 10.088657,-2.604549 13.772297,-1.388838 2.631906,0.868607 5.589987,3.952916 6.617195,6.899566 l 0.655085,1.879178 1.024169,-1.536874 c 3.81789,-5.729149 8.030764,-8.129628 14.153021,-8.064336 5.239025,0.05587 7.127164,0.742377 10.552116,3.836614 5.318379,4.804836 6.766522,11.948705 6.775747,33.42559 0.0052,12.148942 0.07542,12.838542 1.526094,14.991202 2.125132,3.15348 4.612671,3.9291 6.980717,2.1766 2.595747,-1.92102 3.616438,-4.40798 4.204918,-10.24549 1.00248,-9.944168 2.9377,-14.281714 7.72693,-17.318959 l 2.89117,-1.833523 -2.55799,-1.692795 c -3.52209,-2.330812 -5.07283,-5.761338 -5.03804,-11.145112 0.0494,-7.64552 3.64801,-12.145756 11.54908,-14.442658 4.89714,-1.423637 14.61949,-1.43191 19.43179,-0.01654 7.9343,2.333603 11.55281,6.844686 11.59827,14.459194 0.032,5.3603 -1.52807,8.798633 -5.04955,11.129037 l -2.53369,1.67672 3.10996,2.097122 C 147.19436,89.401162 149,93.421249 149,100.70597 c 0,5.21722 -0.18154,6.02739 -2.01485,8.99182 -3.68417,5.95724 -9.65239,8.87521 -19.31849,9.44515 -4.36756,0.25753 -7.17898,0.0545 -10.33333,-0.74636 -4.19744,-1.06564 -10.78872,-4.87514 -11.91393,-6.88577 -0.41432,-0.74036 -0.73229,-0.50297 -1.36174,1.01666 -2.47478,5.97462 -9.953866,8.50798 -16.390995,5.55204 -6.355753,-2.91857 -7.069227,-5.43235 -7.685848,-27.079513 -0.292962,-10.28474 -0.824045,-18.40501 -1.305998,-19.968716 -1.231124,-3.994414 -4.603482,-7.031283 -7.808042,-7.031283 -3.412785,0 -7.62133,2.740377 -9.591185,6.245261 -2.577904,4.58676 -3.353486,9.42787 -3.912495,24.421405 -0.455966,12.229746 -0.745224,14.885836 -1.970934,18.097946 -2.755098,7.22004 -7.767461,9.98831 -15.391158,8.50035 z m 91.142365,-6.99557 c 3.68266,-1.22827 7.27789,-4.32696 8.60279,-7.41465 0.50628,-1.17989 0.9205,-3.96452 0.9205,-6.18808 0,-4.854028 -1.0822,-7.619789 -4.08717,-10.445492 -6.502,-6.114114 -17.74954,-5.17069 -23.48988,1.97029 -3.57127,4.442661 -3.22222,13.171782 0.71376,17.849422 3.96284,4.70957 10.85698,6.39077 17.34,4.22851 z m 2.26545,-34.307906 c 3.90277,-1.991041 5.38734,-4.756088 5.08475,-9.470445 -0.29817,-4.645542 -1.7698,-6.911001 -5.84053,-8.991041 -5.91227,-3.021023 -14.73596,-1.398128 -18.1023,3.329462 -1.99187,2.797325 -2.34967,8.085106 -0.75433,11.147859 2.89038,5.548966 12.65636,7.532878 19.61241,3.984165 z" fill="#fff"/>
</svg>
