<?xml version="1.0" encoding="utf-8"?>
<svg viewBox="0 0 212.831 119.543" xmlns="http://www.w3.org/2000/svg">
  <path fill="none" stroke="#d9b660" stroke-width="4" d="M 67.686 32.668 L 85.817 32.668"/>
  <path fill="none" stroke="#d9b660" stroke-width="4" d="M 76.772 33.389 L 76.772 84.788"/>
  <path fill="none" stroke="#d9b660" stroke-width="4" d="M 29.918 32.547 L 48.049 32.547"/>
  <path fill="none" stroke="#d9b660" stroke-width="4" d="M 38.487 32.641 L 38.487 83.631"/>
  <path fill="none" stroke="#d9b660" stroke-width="4" d="M 30.451 82.801 L 48.582 82.801"/>
  <path fill="none" stroke="#d9b660" stroke-width="4" d="M 46.512 31.788 L 76.588 70.319"/>
  <path fill="none" stroke="#d9b660" stroke-width="4" d="M 38.459 33.289 L 76.688 83.719"/>
  <ellipse fill="none" stroke="#d9b660" stroke-width="4" cx="111.386" cy="43.651" rx="23.172" ry="12.96"/>
  <ellipse fill="none" stroke="#d9b660" stroke-width="4" cx="112.17" cy="71.386" rx="23.61" ry="14.402"/>
  <path fill="none" stroke="#d9b660" stroke-width="4" d="M 103.632 31.319 L 103.632 85.419"/>
  <path fill="none" stroke="#d9b660" stroke-width="4" d="M 119.976 31.319 L 119.976 85.419"/>
  <path fill="none" stroke="#d9b660" stroke-width="4" d="M 158.355 48.328 C 173.209 48.328 182.493 63.855 175.066 76.276 C 167.639 88.698 149.071 88.698 141.644 76.276 C 141.532 76.089 141.425 75.901 141.32 75.711"/>
  <path fill="none" stroke="#d9b660" stroke-width="4" d="M 160.012 47.919 L 168.566 32.058"/>
  <path fill="none" stroke="#d9b660" stroke-width="4" d="M 169.427 51.522 L 179.912 32.861"/>
  <path fill="none" stroke="#d9b660" stroke-width="4" d="M 181.512 32.613 L 139.612 32.613"/>
  <path fill="none" stroke="#d9b660" stroke-width="4" d="M 141.588 31.619 L 141.588 45.39"/>
  <path fill="none" stroke="#d9b660" stroke-width="4" d="M 169.53 51.542 L 169.53 82.511"/>
  <path fill="none" stroke="#fff" stroke-width="2" d="M 5.944 33.638 L 5.57 7.016 L 42.4 6.381"/>
  <path fill="none" stroke="#fff" stroke-width="2" d="M 171.146 112.154 L 206.146 112.154 L 206.146 78.154"/>
  <text fill="#fff" letter-spacing="2" style="font-family: sans-serif; font-size: 14px; white-space: pre;" x="100" y="117">STUDIO</text>
</svg>