<svg viewBox="0 0 20 20" fill="none" xmlns="http://www.w3.org/2000/svg">
<path d="M11.4099 10.0002L18.7099 2.71019C18.8032 2.61695 18.8771 2.50626 18.9276 2.38443C18.9781 2.26261 19.004 2.13204 19.004 2.00019C19.004 1.86833 18.9781 1.73776 18.9276 1.61594C18.8771 1.49411 18.8032 1.38342 18.7099 1.29018C18.6167 1.19695 18.506 1.12299 18.3842 1.07253C18.2624 1.02206 18.1318 0.996094 17.9999 0.996094C17.8681 0.996094 17.7375 1.02206 17.6157 1.07253C17.4939 1.12299 17.3832 1.19695 17.2899 1.29018L9.99994 8.59019L2.70994 1.29018C2.52164 1.10188 2.26624 0.996094 1.99994 0.996094C1.73364 0.996094 1.47824 1.10188 1.28994 1.29018C1.10164 1.47849 0.995848 1.73388 0.995848 2.00019C0.995848 2.26649 1.10164 2.52188 1.28994 2.71019L8.58994 10.0002L1.28994 17.2902C1.19621 17.3831 1.12182 17.4937 1.07105 17.6156C1.02028 17.7375 0.994141 17.8682 0.994141 18.0002C0.994141 18.1322 1.02028 18.2629 1.07105 18.3848C1.12182 18.5066 1.19621 18.6172 1.28994 18.7102C1.3829 18.8039 1.4935 18.8783 1.61536 18.9291C1.73722 18.9798 1.86793 19.006 1.99994 19.006C2.13195 19.006 2.26266 18.9798 2.38452 18.9291C2.50638 18.8783 2.61698 18.8039 2.70994 18.7102L9.99994 11.4102L17.2899 18.7102C17.3829 18.8039 17.4935 18.8783 17.6154 18.9291C17.7372 18.9798 17.8679 19.006 17.9999 19.006C18.132 19.006 18.2627 18.9798 18.3845 18.9291C18.5064 18.8783 18.617 18.8039 18.7099 18.7102C18.8037 18.6172 18.8781 18.5066 18.9288 18.3848C18.9796 18.2629 19.0057 18.1322 19.0057 18.0002C19.0057 17.8682 18.9796 17.7375 18.9288 17.6156C18.8781 17.4937 18.8037 17.3831 18.7099 17.2902L11.4099 10.0002Z" fill="#333"/>
</svg>
