<svg viewBox="0 0 23 23" fill="none" xmlns="http://www.w3.org/2000/svg">
<path d="M11.8488 2.22656C10.0358 2.22656 8.26352 2.76418 6.75607 3.77142C5.24862 4.77867 4.07371 6.21031 3.3799 7.8853C2.6861 9.56029 2.50457 11.4034 2.85827 13.1816C3.21197 14.9597 4.08501 16.5931 5.36699 17.875C6.64897 19.157 8.28231 20.0301 10.0605 20.3838C11.8386 20.7375 13.6817 20.5559 15.3567 19.8621C17.0317 19.1683 18.4634 17.9934 19.4706 16.486C20.4778 14.9785 21.0155 13.2062 21.0155 11.3932C21.0155 10.1894 20.7784 8.99745 20.3177 7.8853C19.857 6.77315 19.1818 5.76262 18.3306 4.91142C17.4794 4.06021 16.4689 3.385 15.3567 2.92433C14.2446 2.46367 13.0526 2.22656 11.8488 2.22656ZM11.8488 18.7266C10.3984 18.7266 8.98058 18.2965 7.77462 17.4907C6.56866 16.6849 5.62873 15.5396 5.07368 14.1996C4.51864 12.8596 4.37342 11.3851 4.65637 9.96257C4.93933 8.54004 5.63776 7.23336 6.66335 6.20778C7.68893 5.18219 8.99561 4.48376 10.4181 4.2008C11.8407 3.91785 13.3152 4.06307 14.6551 4.61811C15.9951 5.17316 17.1404 6.11309 17.9462 7.31905C18.752 8.52501 19.1821 9.94283 19.1821 11.3932C19.1821 13.3382 18.4095 15.2034 17.0342 16.5787C15.659 17.9539 13.7937 18.7266 11.8488 18.7266Z" fill="#333"/>
<path d="M15.2496 7.9899C15.1644 7.90398 15.063 7.83579 14.9513 7.78925C14.8396 7.74271 14.7198 7.71875 14.5987 7.71875C14.4777 7.71875 14.3579 7.74271 14.2462 7.78925C14.1345 7.83579 14.0331 7.90398 13.9479 7.9899L11.8487 10.0982L9.74957 7.9899C9.57696 7.81729 9.34285 7.72031 9.09874 7.72031C8.85463 7.72031 8.62052 7.81729 8.44791 7.9899C8.27529 8.16251 8.17832 8.39662 8.17832 8.64073C8.17832 8.88484 8.27529 9.11895 8.44791 9.29157L10.5562 11.3907L8.44791 13.4899C8.36199 13.5751 8.29379 13.6765 8.24726 13.7882C8.20072 13.8999 8.17676 14.0197 8.17676 14.1407C8.17676 14.2617 8.20072 14.3816 8.24726 14.4933C8.29379 14.605 8.36199 14.7063 8.44791 14.7916C8.53312 14.8775 8.63451 14.9457 8.74621 14.9922C8.85792 15.0388 8.97773 15.0627 9.09874 15.0627C9.21975 15.0627 9.33956 15.0388 9.45127 14.9922C9.56297 14.9457 9.66436 14.8775 9.74957 14.7916L11.8487 12.6832L13.9479 14.7916C14.0331 14.8775 14.1345 14.9457 14.2462 14.9922C14.3579 15.0388 14.4777 15.0627 14.5987 15.0627C14.7198 15.0627 14.8396 15.0388 14.9513 14.9922C15.063 14.9457 15.1644 14.8775 15.2496 14.7916C15.3355 14.7063 15.4037 14.605 15.4502 14.4933C15.4968 14.3816 15.5207 14.2617 15.5207 14.1407C15.5207 14.0197 15.4968 13.8999 15.4502 13.7882C15.4037 13.6765 15.3355 13.5751 15.2496 13.4899L13.1412 11.3907L15.2496 9.29157C15.3355 9.20635 15.4037 9.10496 15.4502 8.99326C15.4968 8.88156 15.5207 8.76174 15.5207 8.64073C15.5207 8.51972 15.4968 8.39991 15.4502 8.2882C15.4037 8.1765 15.3355 8.07511 15.2496 7.9899Z" fill="#333"/>
</svg>
