<svg version="1.1" xmlns="http://www.w3.org/2000/svg" xmlns:xlink="http://www.w3.org/1999/xlink" viewBox="0 0 489 489">
	<path fill="#fff" d="M417.4,71.6C371.2,25.4,309.8,0,244.5,0S117.8,25.4,71.6,71.6S0,179.2,0,244.5s25.4,126.7,71.6,172.9S179.2,489,244.5,489
		s126.7-25.4,172.9-71.6S489,309.8,489,244.5S463.6,117.8,417.4,71.6z M244.5,462C124.6,462,27,364.4,27,244.5S124.6,27,244.5,27
		S462,124.6,462,244.5S364.4,462,244.5,462z"/>
	<path fill="#fff" d="M267.8,230.3h-11.7v-73.9v-9.6h50.2c7.5,0,13.5-6,13.5-13.5s-6-13.5-13.5-13.5h-50.2V80.2c0-7.5-6-13.5-13.5-13.5
		s-13.5,6-13.5,13.5v39.6h-11.7c-37.9,0-68.8,30.8-68.8,68.8c0,37.9,30.8,68.8,68.8,68.8h11.7v73.9v9.6h-51.9
		c-7.5,0-13.5,6-13.5,13.5s6,13.5,13.5,13.5h51.9v39.6c0,7.5,6,13.5,13.5,13.5s13.5-6,13.5-13.5v-39.6h11.7
		c37.9,0,68.8-30.8,68.8-68.8C336.5,261.2,305.7,230.3,267.8,230.3z M229.1,156.4v73.9h-11.7c-23,0-41.8-18.7-41.8-41.8
		c0-23,18.7-41.8,41.8-41.8h11.7V156.4z M267.8,340.9h-11.7v-9.6v-73.9h11.7c23,0,41.8,18.7,41.8,41.8
		C309.5,322.1,290.8,340.9,267.8,340.9z"/>
</svg>
